<svg width="161" height="167" viewBox="0 0 161 167" fill="none" xmlns="http://www.w3.org/2000/svg">
<g clip-path="url(#clip0_1033_3284)">
<path d="M156.159 13.2414V43.9472M156.159 13.2414L147.298 8.12382M156.159 13.2414L165.022 18.3591M156.159 43.9472L165.022 49.0648M156.159 43.9472L147.298 38.8296M147.298 -2.11143L173.885 13.2414M147.298 -2.11143L138.435 3.00619M147.298 -2.11143L156.159 -7.22906M173.885 13.2414L182.746 8.12382M173.885 13.2414L165.022 18.3591M156.159 -7.22906L182.746 8.12382M156.159 -7.22906L165.022 -12.3467L191.609 3.00619M182.746 8.12382L191.609 3.00619M165.022 18.3591V49.0648M165.022 49.0648L191.609 33.7119M165.022 49.0648L173.885 54.1824M165.022 49.0648V79.7706M165.022 49.0648L173.885 43.9472M165.022 49.0648L156.159 54.1824M165.022 49.0648L138.435 33.7119M191.609 3.00619V33.7119M138.435 3.00619L147.298 8.12382M138.435 3.00619V33.7119M147.298 8.12382V38.8296M191.609 33.7119L218.196 49.0648M191.609 33.7119L182.746 38.8296M147.298 38.8296L138.435 33.7119M138.435 33.7119L129.573 38.8296M191.609 13.3478L165.022 28.5943M191.609 23.4767L170.003 35.9536L165.022 38.8296M156.159 105.359V136.064M156.159 105.359L147.298 100.241M156.159 105.359L165.022 110.476M156.159 136.064L165.022 141.182M156.159 136.064L147.298 130.947M147.298 90.0058L173.885 105.359M147.298 90.0058L138.435 95.1234M147.298 90.0058L156.159 84.8882M173.885 105.359L182.746 100.241M173.885 105.359L165.022 110.476M156.159 84.8882L182.746 100.241M156.159 84.8882L165.022 79.7706M182.746 100.241L191.609 95.1234M165.022 110.476V141.182M165.022 141.182L191.609 125.829V95.1234M191.609 95.1234L165.022 79.7706M191.609 95.1234V64.4177M191.609 95.1234L218.196 79.7706V49.0648M191.609 95.1234L182.746 90.0058M138.435 95.1234L147.298 100.241M138.435 95.1234V125.829L147.298 130.947M138.435 95.1234V64.4177M138.435 95.1234L165.022 79.7706M138.435 95.1234L129.573 90.0058M147.298 100.241V130.947M165.022 79.7706L173.885 84.8882M191.609 105.465L165.022 120.712M191.609 115.594L165.022 130.947M182.746 59.3001V90.0058M182.746 59.3001L173.885 54.1824M182.746 59.3001L191.609 64.4177M182.746 90.0058L173.885 84.8882M173.885 43.9472L200.472 59.3001M173.885 43.9472L182.746 38.8296M200.472 59.3001L209.333 54.1824M200.472 59.3001L191.609 64.4177M182.746 38.8296L209.333 54.1824M209.333 54.1824L218.196 49.0648M173.885 54.1824V84.8882M218.196 59.4064L191.609 74.6529M218.196 69.5353L191.609 84.8882M129.573 59.3001V90.0058M129.573 59.3001L120.711 54.1824M129.573 59.3001L138.435 64.4177M129.573 90.0058L120.711 84.8882M120.711 43.9472L147.298 59.3001M120.711 43.9472L111.849 49.0648M120.711 43.9472L129.573 38.8296M147.298 59.3001L156.159 54.1824M147.298 59.3001L138.435 64.4177M129.573 38.8296L156.159 54.1824M111.849 49.0648L120.711 54.1824M111.849 49.0648V79.7706L120.711 84.8882M120.711 54.1824V84.8882M165.022 59.4064L138.435 74.6529M165.022 69.5353L138.435 84.8882" stroke="url(#paint0_linear_1033_3284)" stroke-width="2.5"/>
<path d="M103.093 105.19V135.895M103.093 105.19L94.2317 100.072M103.093 105.19L111.956 110.307M103.093 135.895L111.956 141.013M103.093 135.895L94.2317 130.778M94.2317 89.8368L120.818 105.19M94.2317 89.8368L85.369 94.9544M94.2317 89.8368L103.093 84.7192M120.818 105.19L129.68 100.072M120.818 105.19L111.956 110.307M103.093 84.7192L129.68 100.072M103.093 84.7192L111.956 79.6016L138.542 94.9544M129.68 100.072L138.542 94.9544M111.956 110.307V141.013M111.956 141.013L138.542 125.66M111.956 141.013L120.818 146.131M111.956 141.013V171.719M111.956 141.013L120.818 135.895M111.956 141.013L103.093 146.131M111.956 141.013L85.369 125.66M138.542 94.9544V125.66M85.369 94.9544L94.2317 100.072M85.369 94.9544V125.66M94.2317 100.072V130.778M138.542 125.66L165.129 141.013M138.542 125.66L129.68 130.778M94.2317 130.778L85.369 125.66M85.369 125.66L76.5063 130.778M138.542 105.296L111.956 120.543M138.542 115.425L116.937 127.902L111.956 130.778M103.093 197.307V228.013M103.093 197.307L94.2317 192.189M103.093 197.307L111.956 202.425M103.093 228.013L111.956 233.13M103.093 228.013L94.2317 222.895M94.2317 181.954L120.818 197.307M94.2317 181.954L85.369 187.072M94.2317 181.954L103.093 176.836M120.818 197.307L129.68 192.189M120.818 197.307L111.956 202.425M103.093 176.836L129.68 192.189M103.093 176.836L111.956 171.719M129.68 192.189L138.542 187.072M111.956 202.425V233.13M111.956 233.13L138.542 217.777V187.072M138.542 187.072L111.956 171.719M138.542 187.072V156.366M138.542 187.072L165.129 171.719V141.013M138.542 187.072L129.68 181.954M85.369 187.072L94.2317 192.189M85.369 187.072V217.777L94.2317 222.895M85.369 187.072V156.366M85.369 187.072L111.956 171.719M85.369 187.072L76.5063 181.954M94.2317 192.189V222.895M111.956 171.719L120.818 176.836M138.542 197.413L111.956 212.66M138.542 207.542L111.956 222.895M129.68 151.248V181.954M129.68 151.248L120.818 146.131M129.68 151.248L138.542 156.366M129.68 181.954L120.818 176.836M120.818 135.895L147.405 151.248M120.818 135.895L129.68 130.778M147.405 151.248L156.267 146.131M147.405 151.248L138.542 156.366M129.68 130.778L156.267 146.131M156.267 146.131L165.129 141.013M120.818 146.131V176.836M165.129 151.355L138.542 166.601M165.129 161.484L138.542 176.836M76.5063 151.248V181.954M76.5063 151.248L67.6449 146.131M76.5063 151.248L85.369 156.366M76.5063 181.954L67.6449 176.836M67.6449 135.895L94.2317 151.248M67.6449 135.895L58.7822 141.013M67.6449 135.895L76.5063 130.778M94.2317 151.248L103.093 146.131M94.2317 151.248L85.369 156.366M76.5063 130.778L103.093 146.131M58.7822 141.013L67.6449 146.131M58.7822 141.013V171.719L67.6449 176.836M67.6449 146.131V176.836M111.956 151.355L85.369 166.601M111.956 161.484L85.369 176.836" stroke="url(#paint1_linear_1033_3284)" stroke-width="2.5"/>
</g>
<defs>
<linearGradient id="paint0_linear_1033_3284" x1="115" y1="47" x2="197" y2="96.5" gradientUnits="userSpaceOnUse">
<stop stop-color="#104F88"/>
<stop offset="1" stop-color="#6EB1EE"/>
</linearGradient>
<linearGradient id="paint1_linear_1033_3284" x1="86" y1="96.5" x2="165" y2="162" gradientUnits="userSpaceOnUse">
<stop stop-color="#104F88"/>
<stop offset="1" stop-color="#6EB1EE"/>
</linearGradient>
<clipPath id="clip0_1033_3284">
<rect width="189" height="178" fill="white"/>
</clipPath>
</defs>
</svg>
