<svg width="162" height="167" viewBox="0 0 162 167" fill="none" xmlns="http://www.w3.org/2000/svg">
<g clip-path="url(#clip0_413_1639)">
<path d="M156.158 10.2414V40.9472M156.158 10.2414L147.297 5.12382M156.158 10.2414L165.021 15.3591M156.158 40.9472L165.021 46.0648M156.158 40.9472L147.297 35.8296M147.297 -5.11143L173.884 10.2414M147.297 -5.11143L138.434 0.00619463M147.297 -5.11143L156.158 -10.2291M173.884 10.2414L182.745 5.12382M173.884 10.2414L165.021 15.3591M156.158 -10.2291L182.745 5.12382M156.158 -10.2291L165.021 -15.3467L191.608 0.00619463M182.745 5.12382L191.608 0.00619463M165.021 15.3591V46.0648M165.021 46.0648L191.608 30.7119M165.021 46.0648L173.884 51.1824M165.021 46.0648V76.7706M165.021 46.0648L173.884 40.9472M165.021 46.0648L156.158 51.1824M165.021 46.0648L138.434 30.7119M191.608 0.00619463V30.7119M138.434 0.00619463L147.297 5.12382M138.434 0.00619463V30.7119M147.297 5.12382V35.8296M191.608 30.7119L218.195 46.0648M191.608 30.7119L182.745 35.8296M147.297 35.8296L138.434 30.7119M138.434 30.7119L129.572 35.8296M191.608 10.3478L165.021 25.5943M191.608 20.4767L170.002 32.9536L165.021 35.8296M156.158 102.359V133.064M156.158 102.359L147.297 97.2411M156.158 102.359L165.021 107.476M156.158 133.064L165.021 138.182M156.158 133.064L147.297 127.947M147.297 87.0058L173.884 102.359M147.297 87.0058L138.434 92.1234M147.297 87.0058L156.158 81.8882M173.884 102.359L182.745 97.2411M173.884 102.359L165.021 107.476M156.158 81.8882L182.745 97.2411M156.158 81.8882L165.021 76.7706M182.745 97.2411L191.608 92.1234M165.021 107.476V138.182M165.021 138.182L191.608 122.829V92.1234M191.608 92.1234L165.021 76.7706M191.608 92.1234V61.4177M191.608 92.1234L218.195 76.7706V46.0648M191.608 92.1234L182.745 87.0058M138.434 92.1234L147.297 97.2411M138.434 92.1234V122.829L147.297 127.947M138.434 92.1234V61.4177M138.434 92.1234L165.021 76.7706M138.434 92.1234L129.572 87.0058M147.297 97.2411V127.947M165.021 76.7706L173.884 81.8882M191.608 102.465L165.021 117.712M191.608 112.594L165.021 127.947M182.745 56.3001V87.0058M182.745 56.3001L173.884 51.1824M182.745 56.3001L191.608 61.4177M182.745 87.0058L173.884 81.8882M173.884 40.9472L200.471 56.3001M173.884 40.9472L182.745 35.8296M200.471 56.3001L209.332 51.1824M200.471 56.3001L191.608 61.4177M182.745 35.8296L209.332 51.1824M209.332 51.1824L218.195 46.0648M173.884 51.1824V81.8882M218.195 56.4064L191.608 71.6529M218.195 66.5353L191.608 81.8882M129.572 56.3001V87.0058M129.572 56.3001L120.71 51.1824M129.572 56.3001L138.434 61.4177M129.572 87.0058L120.71 81.8882M120.71 40.9472L147.297 56.3001M120.71 40.9472L111.848 46.0648M120.71 40.9472L129.572 35.8296M147.297 56.3001L156.158 51.1824M147.297 56.3001L138.434 61.4177M129.572 35.8296L156.158 51.1824M111.848 46.0648L120.71 51.1824M111.848 46.0648V76.7706L120.71 81.8882M120.71 51.1824V81.8882M165.021 56.4064L138.434 71.6529M165.021 66.5353L138.434 81.8882" stroke="url(#paint0_linear_413_1639)" stroke-width="2.5"/>
<path d="M103.092 102.19V132.895M103.092 102.19L94.2307 97.0721M103.092 102.19L111.955 107.307M103.092 132.895L111.955 138.013M103.092 132.895L94.2307 127.778M94.2307 86.8368L120.817 102.19M94.2307 86.8368L85.368 91.9544M94.2307 86.8368L103.092 81.7192M120.817 102.19L129.679 97.0721M120.817 102.19L111.955 107.307M103.092 81.7192L129.679 97.0721M103.092 81.7192L111.955 76.6016L138.542 91.9544M129.679 97.0721L138.542 91.9544M111.955 107.307V138.013M111.955 138.013L138.542 122.66M111.955 138.013L120.817 143.131M111.955 138.013V168.719M111.955 138.013L120.817 132.895M111.955 138.013L103.092 143.131M111.955 138.013L85.368 122.66M138.542 91.9544V122.66M85.368 91.9544L94.2307 97.0721M85.368 91.9544V122.66M94.2307 97.0721V127.778M138.542 122.66L165.128 138.013M138.542 122.66L129.679 127.778M94.2307 127.778L85.368 122.66M85.368 122.66L76.5053 127.778M138.542 102.296L111.955 117.543M138.542 112.425L116.936 124.902L111.955 127.778M103.092 194.307V225.013M103.092 194.307L94.2307 189.189M103.092 194.307L111.955 199.425M103.092 225.013L111.955 230.13M103.092 225.013L94.2307 219.895M94.2307 178.954L120.817 194.307M94.2307 178.954L85.368 184.072M94.2307 178.954L103.092 173.836M120.817 194.307L129.679 189.189M120.817 194.307L111.955 199.425M103.092 173.836L129.679 189.189M103.092 173.836L111.955 168.719M129.679 189.189L138.542 184.072M111.955 199.425V230.13M111.955 230.13L138.542 214.777V184.072M138.542 184.072L111.955 168.719M138.542 184.072V153.366M138.542 184.072L165.128 168.719V138.013M138.542 184.072L129.679 178.954M85.368 184.072L94.2307 189.189M85.368 184.072V214.777L94.2307 219.895M85.368 184.072V153.366M85.368 184.072L111.955 168.719M85.368 184.072L76.5053 178.954M94.2307 189.189V219.895M111.955 168.719L120.817 173.836M138.542 194.413L111.955 209.66M138.542 204.542L111.955 219.895M129.679 148.248V178.954M129.679 148.248L120.817 143.131M129.679 148.248L138.542 153.366M129.679 178.954L120.817 173.836M120.817 132.895L147.404 148.248M120.817 132.895L129.679 127.778M147.404 148.248L156.266 143.131M147.404 148.248L138.542 153.366M129.679 127.778L156.266 143.131M156.266 143.131L165.128 138.013M120.817 143.131V173.836M165.128 148.355L138.542 163.601M165.128 158.484L138.542 173.836M76.5053 148.248V178.954M76.5053 148.248L67.6439 143.131M76.5053 148.248L85.368 153.366M76.5053 178.954L67.6439 173.836M67.6439 132.895L94.2307 148.248M67.6439 132.895L58.7812 138.013M67.6439 132.895L76.5053 127.778M94.2307 148.248L103.092 143.131M94.2307 148.248L85.368 153.366M76.5053 127.778L103.092 143.131M58.7812 138.013L67.6439 143.131M58.7812 138.013V168.719L67.6439 173.836M67.6439 143.131V173.836M111.955 148.355L85.368 163.601M111.955 158.484L85.368 173.836" stroke="url(#paint1_linear_413_1639)" stroke-width="2.5"/>
</g>
<defs>
<linearGradient id="paint0_linear_413_1639" x1="114.999" y1="44" x2="196.999" y2="93.5" gradientUnits="userSpaceOnUse">
<stop stop-color="#005B05"/>
<stop offset="1" stop-color="#87D08B"/>
</linearGradient>
<linearGradient id="paint1_linear_413_1639" x1="85.999" y1="93.5" x2="164.999" y2="159" gradientUnits="userSpaceOnUse">
<stop stop-color="#005B05"/>
<stop offset="1" stop-color="#87D08B"/>
</linearGradient>
<clipPath id="clip0_413_1639">
<rect width="189" height="178" fill="white" transform="translate(0 -3)"/>
</clipPath>
</defs>
</svg>
