<svg width="720" height="1024" viewBox="0 0 720 1024" fill="none" xmlns="http://www.w3.org/2000/svg">
<g clip-path="url(#clip0_44_152)">
<rect width="720" height="1024" fill="#DEF6DE"/>
<rect x="37" y="45" width="177" height="151" rx="10" fill="#438246"/>
<rect x="-16.5" y="94.5" width="115" height="73" rx="8.5" stroke="black" stroke-width="3" stroke-dasharray="6 6"/>
<rect x="31" y="716" width="107" height="150" rx="10" fill="#438246"/>
<rect x="69.5459" y="787.409" width="103.954" height="108.734" rx="8.5" stroke="#005B05" stroke-width="3"/>
<line x1="77.606" y1="802.932" x2="164.842" y2="802.932" stroke="#005B05" stroke-width="3"/>
<line x1="77.606" y1="828.027" x2="164.842" y2="828.027" stroke="#005B05" stroke-width="3"/>
<line x1="77.606" y1="853.122" x2="164.842" y2="853.122" stroke="#005B05" stroke-width="3"/>
<line x1="77.606" y1="878.218" x2="164.842" y2="878.218" stroke="#005B05" stroke-width="3"/>
<rect x="287.414" y="177.284" width="38" height="38" rx="1" transform="rotate(-45 287.414 177.284)" stroke="black" stroke-width="2" stroke-dasharray="4 4"/>
<rect x="9" y="463.358" width="31.6188" height="31.6188" rx="2" transform="rotate(-45 9 463.358)" fill="#438246"/>
<rect x="64" y="148.607" width="15" height="15" rx="2" transform="rotate(-45 64 148.607)" fill="#438246"/>
<rect x="245.414" y="730.858" width="19.0123" height="19.0123" rx="1" transform="rotate(-45 245.414 730.858)" stroke="#005B05" stroke-width="2"/>
<rect x="286" y="443" width="295" height="252" rx="10" fill="#438246"/>
<rect x="404.5" y="552.5" width="244" height="246" rx="8.5" stroke="black" stroke-width="3" stroke-dasharray="6 6"/>
<path d="M428.985 277.625C434.134 270.84 434.582 261.519 429.732 254.435C425.851 248.768 423.24 241.759 423.538 236.614C424.135 227.368 429.881 218.867 437.716 213.797C448.014 207.086 461.744 206.116 472.863 211.336C483.981 216.556 492.04 227.74 493.458 239.895C494.503 248.619 492.488 258.163 496.965 265.769C500.249 271.212 506.293 274.419 512.263 276.581C518.307 278.669 524.65 280.086 530.172 283.292C535.694 286.499 540.395 292.016 540.32 298.429C540.246 303.276 537.485 307.75 537.186 312.522C536.738 319.531 541.663 325.72 546.887 330.343C552.185 334.966 558.229 338.993 561.811 345.033C567.706 355.025 564.945 368.521 557.483 377.469C550.021 386.417 538.828 391.413 527.635 394.321C497.04 402.374 464.804 397.155 433.239 396.633C423.463 396.484 413.464 396.782 403.987 394.321C394.51 391.86 385.257 386.193 381.303 377.245C377.273 368.298 379.288 357.411 384.661 349.283C390.033 341.155 398.465 335.265 407.345 331.089C413.763 328.032 420.628 325.646 425.851 320.873C431.075 316.101 434.134 307.974 430.627 301.785C429.284 299.398 427.045 297.534 425.777 295.148C423.24 290.525 424.284 284.634 427.12 280.16C427.642 279.415 428.239 278.595 428.985 277.625Z" fill="#0C0C0C"/>
<path d="M421.822 411.77L375.557 444.579L318.844 561.647H329.291L392.719 458.001C392.719 458.001 414.36 458.746 421.822 452.035C429.284 445.324 472.191 416.243 472.191 416.243L421.822 411.77Z" fill="#0B4870"/>
<path d="M503.681 402.374C512.113 425.191 506.144 457.255 477.788 458.746C449.432 460.238 440.477 458.746 440.477 458.746L385.257 570.595H372.572L415.852 445.324L468.46 416.244L503.681 402.374Z" fill="#0B4870"/>
<path d="M460.625 272.331C453.163 282.025 435.254 308.868 428.538 338.695C421.822 368.521 403.167 411.77 403.167 411.77H424.807L445.701 340.932L465.102 274.568L460.625 272.331Z" fill="#438246"/>
<path d="M437.642 232.736C436.522 251.005 444.507 263.532 455.924 264.129C467.341 264.725 474.803 248.172 471.37 232.736C463.386 219.016 452.491 217.898 452.491 217.898H445.626L437.642 232.736Z" fill="#FFE3CA"/>
<path d="M445.253 221.85C447.342 228.262 451.969 233.78 457.939 236.912C463.908 240.044 471.072 240.789 477.564 238.851L461.297 215.661H447.342L433.985 226.249L436 238.403C441.223 234.451 445.253 221.85 445.253 221.85Z" fill="#0C0C0C"/>
<path d="M459.356 261.966C461.744 271.213 460.998 280.906 460.998 282.397C463.236 285.38 473.683 284.634 475.176 274.195C472.937 260.773 468.46 245.86 468.46 245.86L464.729 254.062L459.356 261.966Z" fill="#FFE3CA"/>
<path d="M473.683 266.291C483.011 269.348 514.352 283.516 515.844 286.499C513.606 294.701 502.412 416.244 502.412 416.244H451.67C451.67 416.244 458.386 349.134 454.655 344.66C450.924 340.186 438.984 324.527 440.477 322.29C441.969 320.053 460.923 271.958 460.923 271.958L473.683 266.291Z" fill="#005B05"/>
<path d="M515.844 286.499C523.157 292.091 553.901 342.423 544.2 369.267C534.5 396.111 502.786 411.919 502.786 411.919V397.155C502.786 397.155 528.53 376.724 527.038 361.81C525.545 346.897 507.636 316.325 507.636 316.325L515.844 286.499Z" fill="#438246"/>
<path d="M395.63 424.819H505.472C508.905 424.819 511.74 421.985 511.74 418.555L514.725 348.314C514.725 344.884 511.889 342.05 508.457 342.05H394.137C390.705 342.05 387.869 344.884 387.869 348.314L389.362 418.555C389.362 421.985 392.197 424.819 395.63 424.819Z" fill="#C4F0C4"/>
<path d="M374.363 570.596C366.975 572.236 356.976 580.364 352.2 584.539C351.23 585.36 351.827 587 353.171 587C360.857 586.851 378.243 586.031 382.273 582.601C387.496 578.127 386.004 570.67 386.004 570.67H374.363V570.596ZM318.994 561.349C312.427 563.139 303.771 570.745 299.443 574.846C298.473 575.741 299.219 577.306 300.488 577.232C307.726 576.71 323.247 575.293 326.755 571.938C331.381 567.613 329.665 560.827 329.665 560.827L318.994 561.349Z" fill="#E4F4FF"/>
<path d="M450.924 394.619C444.742 394.619 439.731 389.612 439.731 383.434C439.731 377.257 444.742 372.249 450.924 372.249C457.106 372.249 462.117 377.257 462.117 383.434C462.117 389.612 457.106 394.619 450.924 394.619Z" fill="#005B05"/>
<rect x="200.035" y="350.536" width="20.1012" height="20.1012" rx="2" transform="rotate(-45 200.035 350.536)" fill="#005B05"/>
<rect x="303" y="825.284" width="40" height="40" rx="2" transform="rotate(-45 303 825.284)" fill="#005B05"/>
<rect x="468.5" y="72.5" width="126" height="77.9439" rx="8.5" stroke="#005B05" stroke-width="3"/>
<line x1="478.862" y1="85.8103" x2="583.397" y2="85.8103" stroke="#005B05" stroke-width="3"/>
<line x1="478.862" y1="110.276" x2="583.397" y2="110.276" stroke="#005B05" stroke-width="3"/>
<line x1="478.862" y1="134.741" x2="583.397" y2="134.741" stroke="#005B05" stroke-width="3"/>
<rect x="546.414" y="913.284" width="38" height="38" rx="1" transform="rotate(-45 546.414 913.284)" stroke="black" stroke-width="2" stroke-dasharray="4 4"/>
<rect x="612.414" y="222.858" width="19.0123" height="19.0123" rx="1" transform="rotate(-45 612.414 222.858)" stroke="#005B05" stroke-width="2"/>
<rect x="564.82" y="305.991" width="11.99" height="11.99" transform="rotate(-130 564.82 305.991)" stroke="#0B4870" stroke-width="3" stroke-dasharray="6 6"/>
<rect x="700.635" y="112.083" width="14.99" height="14.99" transform="rotate(-129 700.635 112.083)" fill="#438146"/>
<rect x="709.635" y="430.082" width="14.99" height="14.99" transform="rotate(-174 709.635 430.082)" fill="#0B4870"/>
<rect x="459.544" y="851.963" width="12" height="12" transform="rotate(-178 459.544 851.963)" stroke="#005B05" stroke-width="3" stroke-dasharray="6 6"/>
<rect x="421.448" y="950.953" width="12" height="12" transform="rotate(22 421.448 950.953)" stroke="#005B05" stroke-width="3"/>
</g>
<defs>
<clipPath id="clip0_44_152">
<rect width="720" height="1024" fill="white"/>
</clipPath>
</defs>
</svg>
