<svg width="65" height="167" viewBox="0 0 65 167" fill="none" xmlns="http://www.w3.org/2000/svg">
<path d="M0.0320667 49V51.5411C16.2734 53.2016 29.1061 65.8367 29.9832 81.4671H32.5173C32.4844 80.3603 32.3865 78.7639 32.2244 77.6901C29.4632 59.7137 13.676 50.3347 0.13 49.0321C0.13 49.0321 0.0970667 49.0321 0.0320667 49ZM32.5173 81.4671V81.5C32.5815 81.4671 32.6127 81.4679 32.6127 81.4679C46.1587 80.1653 61.9467 70.7863 64.7079 52.8099C64.8709 51.7352 64.9679 50.1397 65.0009 49.0321H62.4667C61.5888 64.6633 48.7587 77.2984 32.5173 78.9589V81.4671ZM32.5173 81.5C32.4523 81.5329 32.4185 81.5321 32.4185 81.5321C18.8725 82.8347 3.0862 92.2137 0.325 110.19C0.162933 111.265 0.065 112.86 0.0320667 113.968H2.5662C3.44327 98.3367 16.2751 85.7016 32.5173 84.0411V81.5ZM32.5173 81.5321C32.5494 82.6397 32.6456 84.2361 32.8077 85.3107C35.5689 103.286 51.3561 112.665 64.9021 113.968C64.9021 113.968 64.935 113.968 65 114V111.459C48.7587 109.798 35.9259 97.1312 35.0489 81.5329L32.5173 81.5321ZM39.728 49.0321C39.0459 52.7769 36.2527 55.8709 32.5173 57.0756V59.7129C37.7147 58.3782 41.678 54.1775 42.4233 49.0321H39.728ZM45.4783 49.0321C44.6983 55.773 39.403 61.2434 32.5173 62.6769V65.25C40.8651 63.7853 47.3287 57.1727 48.1407 49.0321H45.4783ZM51.2928 49.0321C50.4478 58.802 42.5871 66.7155 32.5173 68.2461V70.7871C44.0813 69.2237 53.1093 60.2017 53.9552 49.0321H51.2928ZM57.1393 49.0321C56.2623 61.8631 45.8354 72.2527 32.5173 73.8473V76.3884C47.2975 74.792 58.9264 63.2627 59.8035 49.0321H57.1393ZM0.0320667 54.1116V56.6527C13.3501 58.2482 23.7787 68.6369 24.6558 81.4679H27.3182C26.442 67.2373 14.8122 55.708 0.0320667 54.1116ZM0 59.7129V62.2539C10.1027 63.7845 17.9634 71.698 18.7755 81.4679H21.4396C20.5955 70.2983 11.5639 61.2763 0 59.712V59.7129ZM0.0320667 65.25V67.8231C6.9186 69.2557 12.2139 74.727 12.9931 81.4679H15.6572C14.846 73.3265 8.38067 66.7147 0.0320667 65.25ZM0.0320667 70.7871V73.4244C3.7674 74.6291 6.56067 77.6901 7.24273 81.4671H9.9398C9.19273 76.3234 5.22947 72.1218 0.0320667 70.7871ZM37.7139 81.5321C38.5909 95.7627 50.2199 107.292 65 108.888V106.347C51.6819 104.752 41.2551 94.3631 40.378 81.5321H37.7139ZM43.5604 81.5321C44.4045 92.7017 53.4361 101.724 65 103.288V100.747C54.9293 99.2164 47.0687 91.3029 46.2245 81.5329L43.5604 81.5321ZM49.3749 81.5321C50.1869 89.6735 56.6514 96.2853 65 97.75V95.1769C58.1135 93.7443 52.8181 88.273 52.039 81.5321H49.3749ZM55.0923 81.5321C55.8393 86.6775 59.8026 90.8782 65 92.2129V89.5756C61.2647 88.3709 58.4714 85.2769 57.7893 81.5329L55.0923 81.5321ZM32.5173 86.6116C17.7372 88.208 6.1074 99.7373 5.23033 113.968H7.89273C8.77067 101.137 19.1984 90.7473 32.5173 89.1527V86.6116ZM32.5173 92.2129C20.9525 93.7763 11.9219 102.798 11.076 113.968H13.7401C14.586 104.198 22.4467 96.2845 32.5173 94.7539V92.2129ZM32.5173 97.75C24.1687 99.2147 17.7034 105.827 16.8913 113.968H19.5555C20.3355 107.227 25.6308 101.723 32.5173 100.323V97.75ZM32.5173 103.287C27.3199 104.622 23.3567 108.823 22.6096 113.968H25.3049C25.9541 110.19 28.7811 107.129 32.5173 105.924V103.287Z" fill="url(#paint0_linear_367_1249)"/>
<path d="M0.0320667 -16V-13.4589C16.2734 -11.7984 29.1061 0.836735 29.9832 16.4671H32.5173C32.4844 15.3603 32.3865 13.7639 32.2244 12.6901C29.4632 -5.28627 13.676 -14.6653 0.13 -15.9679C0.13 -15.9679 0.0970667 -15.9679 0.0320667 -16ZM32.5173 16.4671V16.5C32.5815 16.4671 32.6127 16.4679 32.6127 16.4679C46.1587 15.1653 61.9467 5.78627 64.7079 -12.1901C64.8709 -13.2648 64.9679 -14.8603 65.0009 -15.9679H62.4667C61.5888 -0.336734 48.7587 12.2984 32.5173 13.9589V16.4671ZM32.5173 16.5C32.4523 16.5329 32.4185 16.5321 32.4185 16.5321C18.8725 17.8347 3.0862 27.2137 0.325 45.1901C0.162933 46.2648 0.065 47.8603 0.0320667 48.9679H2.5662C3.44327 33.3367 16.2751 20.7016 32.5173 19.0411V16.5ZM32.5173 16.5321C32.5494 17.6397 32.6456 19.2361 32.8077 20.3107C35.5689 38.2863 51.3561 47.6653 64.9021 48.9679C64.9021 48.9679 64.935 48.9679 65 49V46.4589C48.7587 44.7984 35.9259 32.1312 35.0489 16.5329L32.5173 16.5321ZM39.728 -15.9679C39.0459 -12.2231 36.2527 -9.12907 32.5173 -7.9244V-5.28713C37.7147 -6.6218 41.678 -10.8225 42.4233 -15.9679H39.728ZM45.4783 -15.9679C44.6983 -9.227 39.403 -3.7566 32.5173 -2.32313V0.25C40.8651 -1.21467 47.3287 -7.82733 48.1407 -15.9679H45.4783ZM51.2928 -15.9679C50.4478 -6.198 42.5871 1.71553 32.5173 3.24607V5.78713C44.0813 4.22367 53.1093 -4.79833 53.9552 -15.9679H51.2928ZM57.1393 -15.9679C56.2623 -3.13693 45.8354 7.25267 32.5173 8.84733V11.3884C47.2975 9.792 58.9264 -1.73727 59.8035 -15.9679H57.1393ZM0.0320667 -10.8884V-8.34733C13.3501 -6.7518 23.7787 3.63693 24.6558 16.4679H27.3182C26.442 2.23727 14.8122 -9.292 0.0320667 -10.8884ZM0 -5.28713V-2.74607C10.1027 -1.21553 17.9634 6.698 18.7755 16.4679H21.4396C20.5955 5.29833 11.5639 -3.72367 0 -5.288V-5.28713ZM0.0320667 0.25V2.82313C6.9186 4.25573 12.2139 9.727 12.9931 16.4679H15.6572C14.846 8.32647 8.38067 1.71467 0.0320667 0.25ZM0.0320667 5.78713V8.4244C3.7674 9.62907 6.56067 12.6901 7.24273 16.4671H9.9398C9.19273 11.3234 5.22947 7.1218 0.0320667 5.78713ZM37.7139 16.5321C38.5909 30.7627 50.2199 42.292 65 43.8884V41.3473C51.6819 39.7518 41.2551 29.3631 40.378 16.5321H37.7139ZM43.5604 16.5321C44.4045 27.7017 53.4361 36.7237 65 38.288V35.7469C54.9293 34.2164 47.0687 26.3029 46.2245 16.5329L43.5604 16.5321ZM49.3749 16.5321C50.1869 24.6735 56.6514 31.2853 65 32.75V30.1769C58.1135 28.7443 52.8181 23.273 52.039 16.5321H49.3749ZM55.0923 16.5321C55.8393 21.6775 59.8026 25.8782 65 27.2129V24.5756C61.2647 23.3709 58.4714 20.2769 57.7893 16.5329L55.0923 16.5321ZM32.5173 21.6116C17.7372 23.208 6.1074 34.7373 5.23033 48.9679H7.89273C8.77067 36.1369 19.1984 25.7473 32.5173 24.1527V21.6116ZM32.5173 27.2129C20.9525 28.7763 11.9219 37.7983 11.076 48.9679H13.7401C14.586 39.198 22.4467 31.2845 32.5173 29.7539V27.2129ZM32.5173 32.75C24.1687 34.2147 17.7034 40.8273 16.8913 48.9679H19.5555C20.3355 42.227 25.6308 36.7228 32.5173 35.3231V32.75ZM32.5173 38.2871C27.3199 39.6218 23.3567 43.8225 22.6096 48.9679H25.3049C25.9541 45.1901 28.7811 42.1291 32.5173 40.9244V38.2871Z" fill="url(#paint1_linear_367_1249)"/>
<path d="M0.0320667 114V116.541C16.2734 118.202 29.1061 130.837 29.9832 146.467H32.5173C32.4844 145.36 32.3865 143.764 32.2244 142.69C29.4632 124.714 13.676 115.335 0.13 114.032C0.13 114.032 0.0970667 114.032 0.0320667 114ZM32.5173 146.467V146.5C32.5815 146.467 32.6127 146.468 32.6127 146.468C46.1587 145.165 61.9467 135.786 64.7079 117.81C64.8709 116.735 64.9679 115.14 65.0009 114.032H62.4667C61.5888 129.663 48.7587 142.298 32.5173 143.959V146.467ZM32.5173 146.5C32.4523 146.533 32.4185 146.532 32.4185 146.532C18.8725 147.835 3.0862 157.214 0.325 175.19C0.162933 176.265 0.065 177.86 0.0320667 178.968H2.5662C3.44327 163.337 16.2751 150.702 32.5173 149.041V146.5ZM32.5173 146.532C32.5494 147.64 32.6456 149.236 32.8077 150.311C35.5689 168.286 51.3561 177.665 64.9021 178.968C64.9021 178.968 64.935 178.968 65 179V176.459C48.7587 174.798 35.9259 162.131 35.0489 146.533L32.5173 146.532ZM39.728 114.032C39.0459 117.777 36.2527 120.871 32.5173 122.076V124.713C37.7147 123.378 41.678 119.177 42.4233 114.032H39.728ZM45.4783 114.032C44.6983 120.773 39.403 126.243 32.5173 127.677V130.25C40.8651 128.785 47.3287 122.173 48.1407 114.032H45.4783ZM51.2928 114.032C50.4478 123.802 42.5871 131.716 32.5173 133.246V135.787C44.0813 134.224 53.1093 125.202 53.9552 114.032H51.2928ZM57.1393 114.032C56.2623 126.863 45.8354 137.253 32.5173 138.847V141.388C47.2975 139.792 58.9264 128.263 59.8035 114.032H57.1393ZM0.0320667 119.112V121.653C13.3501 123.248 23.7787 133.637 24.6558 146.468H27.3182C26.442 132.237 14.8122 120.708 0.0320667 119.112ZM0 124.713V127.254C10.1027 128.784 17.9634 136.698 18.7755 146.468H21.4396C20.5955 135.298 11.5639 126.276 0 124.712V124.713ZM0.0320667 130.25V132.823C6.9186 134.256 12.2139 139.727 12.9931 146.468H15.6572C14.846 138.326 8.38067 131.715 0.0320667 130.25ZM0.0320667 135.787V138.424C3.7674 139.629 6.56067 142.69 7.24273 146.467H9.9398C9.19273 141.323 5.22947 137.122 0.0320667 135.787ZM37.7139 146.532C38.5909 160.763 50.2199 172.292 65 173.888V171.347C51.6819 169.752 41.2551 159.363 40.378 146.532H37.7139ZM43.5604 146.532C44.4045 157.702 53.4361 166.724 65 168.288V165.747C54.9293 164.216 47.0687 156.303 46.2245 146.533L43.5604 146.532ZM49.3749 146.532C50.1869 154.674 56.6514 161.285 65 162.75V160.177C58.1135 158.744 52.8181 153.273 52.039 146.532H49.3749ZM55.0923 146.532C55.8393 151.677 59.8026 155.878 65 157.213V154.576C61.2647 153.371 58.4714 150.277 57.7893 146.533L55.0923 146.532ZM32.5173 151.612C17.7372 153.208 6.1074 164.737 5.23033 178.968H7.89273C8.77067 166.137 19.1984 155.747 32.5173 154.153V151.612ZM32.5173 157.213C20.9525 158.776 11.9219 167.798 11.076 178.968H13.7401C14.586 169.198 22.4467 161.284 32.5173 159.754V157.213ZM32.5173 162.75C24.1687 164.215 17.7034 170.827 16.8913 178.968H19.5555C20.3355 172.227 25.6308 166.723 32.5173 165.323V162.75ZM32.5173 168.287C27.3199 169.622 23.3567 173.823 22.6096 178.968H25.3049C25.9541 175.19 28.7811 172.129 32.5173 170.924V168.287Z" fill="url(#paint2_linear_367_1249)"/>
<defs>
<linearGradient id="paint0_linear_367_1249" x1="64" y1="79.5" x2="-24.5" y2="79.5" gradientUnits="userSpaceOnUse">
<stop stop-color="#005B05"/>
<stop offset="1" stop-color="#87D08B"/>
</linearGradient>
<linearGradient id="paint1_linear_367_1249" x1="64" y1="14.5" x2="-24.5" y2="14.5" gradientUnits="userSpaceOnUse">
<stop stop-color="#005B05"/>
<stop offset="1" stop-color="#87D08B"/>
</linearGradient>
<linearGradient id="paint2_linear_367_1249" x1="64" y1="144.5" x2="-24.5" y2="144.5" gradientUnits="userSpaceOnUse">
<stop stop-color="#005B05"/>
<stop offset="1" stop-color="#87D08B"/>
</linearGradient>
</defs>
</svg>
