<svg width="660" height="395" viewBox="0 0 660 395" fill="none" xmlns="http://www.w3.org/2000/svg">
<path d="M376 216L278 314L235.999 272M432 258C432 327.588 375.588 384 306 384C236.412 384 180 327.588 180 258C180 188.412 236.412 132 306 132C375.588 132 432 188.412 432 258Z" stroke="#438146" stroke-width="10" stroke-linecap="round" stroke-linejoin="round"/>
<rect x="102.247" y="251.194" width="12" height="12" transform="rotate(98 102.247 251.194)" stroke="#005B05" stroke-width="3"/>
<rect x="646.5" y="246" width="15" height="15" transform="rotate(30 646.5 246)" fill="black"/>
<rect x="539.606" y="91.2131" width="15" height="15" transform="rotate(-135 539.606 91.2131)" fill="#438146"/>
<rect x="250.975" y="78.6622" width="12" height="12" transform="rotate(118 250.975 78.6622)" stroke="#005B05" stroke-width="3"/>
<rect x="402.392" y="19.2722" width="15" height="15" transform="rotate(119 402.392 19.2722)" fill="#438146"/>
<rect x="637.562" y="34.1055" width="12" height="12" transform="rotate(52 637.562 34.1055)" stroke="#005B05" stroke-width="3"/>
<rect y="129.918" width="15" height="15" transform="rotate(-87 0 129.918)" fill="black"/>
<rect x="521.551" y="310.544" width="12" height="12" transform="rotate(-88 521.551 310.544)" stroke="#005B05" stroke-width="3"/>
<rect x="17.0039" y="365" width="15" height="15" transform="rotate(69 17.0039 365)" fill="#438146"/>
<rect x="445" y="382.365" width="15" height="15" transform="rotate(-63 445 382.365)" fill="#438146"/>
<rect x="79.3553" y="13.5827" width="12" height="12" transform="rotate(174 79.3553 13.5827)" stroke="#005B05" stroke-width="3"/>
<rect x="93.6501" y="122.967" width="11.9857" height="11.9857" transform="rotate(23 93.6501 122.967)" stroke="#005B05" stroke-width="3" stroke-dasharray="6 6"/>
<rect x="521.65" y="167.967" width="11.9857" height="11.9857" transform="rotate(23 521.65 167.967)" stroke="#005B05" stroke-width="3" stroke-dasharray="6 6"/>
<rect x="607.65" y="376.967" width="11.9857" height="11.9857" transform="rotate(23 607.65 376.967)" stroke="#005B05" stroke-width="3" stroke-dasharray="6 6"/>
<rect x="146.65" y="356.967" width="11.9857" height="11.9857" transform="rotate(23 146.65 356.967)" stroke="#005B05" stroke-width="3" stroke-dasharray="6 6"/>
</svg>
