<svg width="369" height="246" viewBox="0 0 369 246" fill="none" xmlns="http://www.w3.org/2000/svg">
<g clip-path="url(#clip0_109_509)">
<path d="M87.8876 194.909C94.6198 201.761 107.208 200.317 107.208 200.317C107.208 200.317 108.875 187.763 102.136 180.915C95.4041 174.063 82.8212 175.504 82.8212 175.504C82.8212 175.504 81.1554 188.057 87.8876 194.909Z" fill="#005B05"/>
<path d="M262.17 51.4619C255.121 55.4832 245.219 51.4123 245.219 51.4123C245.219 51.4123 246.753 40.8232 253.807 36.8069C260.856 32.7856 270.754 36.852 270.754 36.852C270.754 36.852 269.219 47.441 262.17 51.4619Z" fill="#438146"/>
<path d="M133.173 64.0146C125.928 71.3893 112.378 69.8342 112.378 69.8342C112.378 69.8342 110.585 56.3226 117.837 48.9525C125.083 41.5778 138.626 43.128 138.626 43.128C138.626 43.128 140.419 56.6399 133.173 64.0146Z" fill="#438146"/>
<path d="M93.5088 133.672C96.9438 133.672 99.7285 136.596 99.7285 140.202C99.7285 143.809 96.9438 146.733 93.5088 146.733C90.0737 146.733 87.2891 143.809 87.2891 140.202C87.2891 136.596 90.0737 133.672 93.5088 133.672Z" fill="#005B05"/>
<path d="M196.185 205.41C198.11 205.41 199.67 206.97 199.67 208.895C199.67 210.82 198.11 212.38 196.185 212.38C194.26 212.38 192.7 210.82 192.7 208.895C192.7 206.97 194.26 205.41 196.185 205.41Z" fill="#005B05"/>
<path d="M284.343 165.23C288.309 165.23 291.525 168.446 291.525 172.412C291.525 176.379 288.309 179.595 284.343 179.595C280.376 179.595 277.16 176.379 277.16 172.412C277.16 168.446 280.376 165.23 284.343 165.23Z" fill="#005B05"/>
<path d="M290.355 114.95C293.567 114.95 296.17 112.347 296.17 109.135C296.17 105.924 293.567 103.32 290.355 103.32C287.144 103.32 284.54 105.924 284.54 109.135C284.54 112.347 287.144 114.95 290.355 114.95Z" fill="#438146"/>
<path d="M101.517 97.4803C104.265 97.4803 106.493 95.2526 106.493 92.5046C106.493 89.7565 104.265 87.5288 101.517 87.5288C98.7687 87.5288 96.541 89.7565 96.541 92.5046C96.541 95.2526 98.7687 97.4803 101.517 97.4803Z" fill="#C4F0C4"/>
<path d="M129.693 212.271C131.352 212.271 132.696 211.01 132.696 209.455C132.696 207.9 131.352 206.64 129.693 206.64C128.035 206.64 126.69 207.9 126.69 209.455C126.69 211.01 128.035 212.271 129.693 212.271Z" fill="#005B05"/>
<path d="M272.566 156.118C274.784 156.118 276.583 154.395 276.583 152.269C276.583 150.143 274.784 148.42 272.566 148.42C270.348 148.42 268.55 150.143 268.55 152.269C268.55 154.395 270.348 156.118 272.566 156.118Z" fill="#005B05"/>
<path d="M256.405 201.21C258.981 201.21 261.069 199.121 261.069 196.545C261.069 193.969 258.981 191.88 256.405 191.88C253.829 191.88 251.74 193.969 251.74 196.545C251.74 199.121 253.829 201.21 256.405 201.21Z" fill="#005B05"/>
<path d="M164.42 49.3879C165.622 49.3879 166.597 48.274 166.597 46.9C166.597 45.526 165.622 44.4121 164.42 44.4121C163.218 44.4121 162.243 45.526 162.243 46.9C162.243 48.274 163.218 49.3879 164.42 49.3879Z" fill="#005B05"/>
<path d="M269.142 122.75C268.815 123.97 269.54 125.225 270.76 125.552C271.981 125.879 273.235 125.154 273.562 123.934C273.889 122.713 273.165 121.459 271.944 121.132C270.724 120.805 269.47 121.529 269.142 122.75Z" fill="#005B05"/>
<path d="M268.456 95.8034C270.173 95.8034 271.565 94.4111 271.565 92.6936C271.565 90.9761 270.173 89.5837 268.456 89.5837C266.738 89.5837 265.346 90.9761 265.346 92.6936C265.346 94.4111 266.738 95.8034 268.456 95.8034Z" fill="#005B05"/>
<path d="M104.205 118.694C105.407 118.694 106.382 117.858 106.382 116.828C106.382 115.797 105.407 114.962 104.205 114.962C103.003 114.962 102.028 115.797 102.028 116.828C102.028 117.858 103.003 118.694 104.205 118.694Z" fill="#005B05"/>
<path d="M209.159 42.3383C208.479 44.8783 209.986 47.4891 212.526 48.1697C215.066 48.8503 217.677 47.3429 218.358 44.8029C219.038 42.2629 217.531 39.6521 214.991 38.9715C212.451 38.2909 209.84 39.7983 209.159 42.3383Z" fill="#005B05"/>
<path d="M66.5491 126.322H66.488C66.1267 131.441 62.3203 131.52 62.3203 131.52C62.3203 131.52 66.5179 131.602 66.5179 137.518C66.5179 131.602 70.7155 131.52 70.7155 131.52C70.7155 131.52 66.9103 131.441 66.5491 126.322ZM284.599 61.3323H284.494C283.872 70.1489 277.317 70.2846 277.317 70.2846C277.317 70.2846 284.546 70.4261 284.546 80.6133C284.546 70.4261 291.775 70.2846 291.775 70.2846C291.775 70.2846 285.222 70.1489 284.599 61.3323Z" fill="#005B05"/>
<path fill-rule="evenodd" clip-rule="evenodd" d="M227.022 162.977V185.987C227.022 194.463 220.158 201.328 211.682 201.328H134.98C126.504 201.328 119.64 194.463 119.64 185.987V109.285C119.64 100.81 126.504 93.9448 134.98 93.9448H157.991" fill="#C4F0C4"/>
<path fill-rule="evenodd" clip-rule="evenodd" d="M148.859 63.7268H236.619C247.393 63.7268 256.121 72.4541 256.121 83.2289V170.989C256.121 181.764 247.393 190.491 236.619 190.491H148.859C138.084 190.491 129.356 181.764 129.356 170.989V83.2289C129.356 72.4541 138.084 63.7268 148.859 63.7268Z" fill="#005B05"/>
<path d="M174.296 126.184L188.205 140.092L218.561 109.728" stroke="white" stroke-width="15" stroke-linecap="round" stroke-linejoin="round"/>
</g>
<defs>
<clipPath id="clip0_109_509">
<rect width="369" height="246" fill="white"/>
</clipPath>
</defs>
</svg>
