<svg width="415" height="278" viewBox="0 0 415 278" fill="none" xmlns="http://www.w3.org/2000/svg">
<g clip-path="url(#clip0_1021_2469)">
<path d="M98.8432 220.264C106.415 228.007 120.573 226.375 120.573 226.375C120.573 226.375 122.447 212.187 114.868 204.449C107.297 196.705 93.1453 198.334 93.1453 198.334C93.1453 198.334 91.2718 212.52 98.8432 220.264Z" fill="#104F88"/>
<path d="M294.852 58.1561C286.924 62.7005 275.788 58.1 275.788 58.1C275.788 58.1 277.514 46.1335 285.446 41.5947C293.374 37.0504 304.506 41.6457 304.506 41.6457C304.506 41.6457 302.78 53.6122 294.852 58.1561Z" fill="#1464AB"/>
<path d="M149.774 72.3415C141.626 80.6755 126.387 78.9181 126.387 78.9181C126.387 78.9181 124.37 63.6489 132.527 55.3201C140.676 46.9861 155.907 48.7379 155.907 48.7379C155.907 48.7379 157.924 64.0076 149.774 72.3415Z" fill="#1464AB"/>
<path d="M105.165 151.06C109.029 151.06 112.161 154.364 112.161 158.44C112.161 162.516 109.029 165.82 105.165 165.82C101.302 165.82 98.1704 162.516 98.1704 158.44C98.1704 154.364 101.302 151.06 105.165 151.06Z" fill="#104F88"/>
<path d="M220.642 232.13C222.806 232.13 224.561 233.893 224.561 236.068C224.561 238.243 222.806 240.007 220.642 240.007C218.477 240.007 216.722 238.243 216.722 236.068C216.722 233.893 218.477 232.13 220.642 232.13Z" fill="#104F88"/>
<path d="M319.789 186.723C324.25 186.723 327.866 190.357 327.866 194.84C327.866 199.323 324.25 202.957 319.789 202.957C315.327 202.957 311.711 199.323 311.711 194.84C311.711 190.357 315.327 186.723 319.789 186.723Z" fill="#104F88"/>
<path d="M326.551 129.903C330.163 129.903 333.091 126.961 333.091 123.331C333.091 119.702 330.163 116.76 326.551 116.76C322.939 116.76 320.011 119.702 320.011 123.331C320.011 126.961 322.939 129.903 326.551 129.903Z" fill="#1464AB"/>
<path d="M114.173 110.161C117.263 110.161 119.769 107.643 119.769 104.538C119.769 101.432 117.263 98.9148 114.173 98.9148C111.082 98.9148 108.577 101.432 108.577 104.538C108.577 107.643 111.082 110.161 114.173 110.161Z" fill="#6EB1EE"/>
<path d="M145.861 239.883C147.726 239.883 149.238 238.459 149.238 236.702C149.238 234.945 147.726 233.52 145.861 233.52C143.995 233.52 142.483 234.945 142.483 236.702C142.483 238.459 143.995 239.883 145.861 239.883Z" fill="#104F88"/>
<path d="M306.545 176.426C309.04 176.426 311.062 174.479 311.062 172.076C311.062 169.674 309.04 167.727 306.545 167.727C304.05 167.727 302.028 169.674 302.028 172.076C302.028 174.479 304.05 176.426 306.545 176.426Z" fill="#104F88"/>
<path d="M288.369 227.383C291.266 227.383 293.615 225.023 293.615 222.112C293.615 219.201 291.266 216.841 288.369 216.841C285.471 216.841 283.123 219.201 283.123 222.112C283.123 225.023 285.471 227.383 288.369 227.383Z" fill="#104F88"/>
<path d="M184.917 55.8122C186.269 55.8122 187.365 54.5535 187.365 53.0007C187.365 51.448 186.269 50.1892 184.917 50.1892C183.565 50.1892 182.469 51.448 182.469 53.0007C182.469 54.5535 183.565 55.8122 184.917 55.8122Z" fill="#104F88"/>
<path d="M302.693 138.717C302.326 140.097 303.14 141.514 304.513 141.884C305.885 142.253 307.296 141.435 307.664 140.056C308.032 138.676 307.217 137.259 305.845 136.889C304.472 136.52 303.061 137.338 302.693 138.717Z" fill="#104F88"/>
<path d="M301.921 108.266C303.853 108.266 305.419 106.692 305.419 104.751C305.419 102.811 303.853 101.237 301.921 101.237C299.99 101.237 298.424 102.811 298.424 104.751C298.424 106.692 299.99 108.266 301.921 108.266Z" fill="#104F88"/>
<path d="M117.196 134.134C118.548 134.134 119.644 133.189 119.644 132.025C119.644 130.86 118.548 129.916 117.196 129.916C115.844 129.916 114.748 130.86 114.748 132.025C114.748 133.189 115.844 134.134 117.196 134.134Z" fill="#104F88"/>
<path d="M235.234 47.8457C234.469 50.7161 236.164 53.6665 239.021 54.4357C241.877 55.2048 244.813 53.5013 245.579 50.6309C246.344 47.7605 244.649 44.8101 241.792 44.041C238.936 43.2718 235.999 44.9753 235.234 47.8457Z" fill="#104F88"/>
<path d="M74.8448 142.754H74.7761C74.3698 148.54 70.0889 148.629 70.0889 148.629C70.0889 148.629 74.8097 148.721 74.8097 155.406C74.8097 148.721 79.5306 148.629 79.5306 148.629C79.5306 148.629 75.251 148.54 74.8448 142.754ZM320.077 69.3105H319.959C319.259 79.2741 311.887 79.4274 311.887 79.4274C311.887 79.4274 320.017 79.5873 320.017 91.0997C320.017 79.5873 328.147 79.4274 328.147 79.4274C328.147 79.4274 320.777 79.2741 320.077 69.3105Z" fill="#104F88"/>
<path fill-rule="evenodd" clip-rule="evenodd" d="M255.324 184.177V210.181C255.324 219.759 247.603 227.517 238.071 227.517H151.807C142.275 227.517 134.555 219.759 134.555 210.181V123.502C134.555 113.924 142.275 106.166 151.807 106.166H177.687" fill="#6EB1EE"/>
<path fill-rule="evenodd" clip-rule="evenodd" d="M167.416 72.0164H266.116C278.234 72.0164 288.049 81.8789 288.049 94.0553V193.231C288.049 205.408 278.234 215.27 266.116 215.27H167.416C155.298 215.27 145.482 205.408 145.482 193.231V94.0553C145.482 81.8789 155.298 72.0164 167.416 72.0164Z" fill="#104F88"/>
<path d="M181 144.722L205.196 169L258 116" stroke="white" stroke-width="10" stroke-linecap="round" stroke-linejoin="round"/>
</g>
<defs>
<clipPath id="clip0_1021_2469">
<rect width="415" height="278" fill="white"/>
</clipPath>
</defs>
</svg>
