<svg width="318" height="212" viewBox="0 0 318 212" fill="none" xmlns="http://www.w3.org/2000/svg">
<g clip-path="url(#clip0_109_121)">
<path fill-rule="evenodd" clip-rule="evenodd" d="M110.389 112.379V82.6903C110.389 72.7026 115.701 63.4693 124.329 58.4442L152.384 42.116C156.67 39.6231 161.539 38.3098 166.496 38.3098C171.454 38.3098 176.323 39.6231 180.608 42.116L208.663 58.4442C217.298 63.4693 222.61 72.7026 222.61 82.6903V112.379C222.61 122.367 217.298 131.6 208.67 136.625L180.614 152.953C176.329 155.446 171.46 156.76 166.503 156.76C161.545 156.76 156.676 155.446 152.391 152.953L124.335 136.625C115.701 131.6 110.389 122.367 110.389 112.379Z" fill="#005B05" stroke="#005B05" stroke-width="21.417" stroke-linecap="round" stroke-linejoin="round"/>
<path d="M166.5 97.5349V69.4795M166.494 119.356C165.633 119.356 164.935 120.054 164.941 120.914C164.947 121.324 165.114 121.714 165.406 122.001C165.697 122.289 166.09 122.45 166.5 122.45C166.909 122.45 167.302 122.289 167.594 122.001C167.885 121.714 168.052 121.324 168.058 120.914C168.058 120.709 168.017 120.506 167.939 120.317C167.86 120.127 167.744 119.955 167.599 119.811C167.454 119.666 167.281 119.551 167.092 119.473C166.902 119.395 166.699 119.355 166.494 119.356Z" stroke="white" stroke-width="10" stroke-linecap="round" stroke-linejoin="round"/>
<path fill-rule="evenodd" clip-rule="evenodd" d="M74.9447 146.227H76.7735C76.9852 146.228 77.1882 146.312 77.338 146.461C77.4877 146.611 77.5719 146.814 77.5721 147.026V148.855C77.5718 149.066 77.4876 149.269 77.3379 149.419C77.1882 149.569 76.9852 149.653 76.7735 149.653H74.9447C74.7333 149.652 74.5307 149.568 74.3812 149.418C74.2317 149.269 74.1474 149.066 74.1465 148.855V147.026C74.1426 146.587 74.5023 146.227 74.9447 146.227ZM81.2856 146.227H83.1148C83.3263 146.228 83.5288 146.313 83.6783 146.462C83.8278 146.612 83.9122 146.814 83.913 147.026V148.855C83.9128 149.066 83.8287 149.269 83.679 149.419C83.5294 149.569 83.3265 149.653 83.1148 149.653H81.2856C81.0742 149.652 80.8716 149.568 80.7221 149.418C80.5726 149.269 80.4883 149.066 80.4874 148.855V147.026C80.4883 146.814 80.5726 146.612 80.7221 146.462C80.8716 146.313 81.0742 146.228 81.2856 146.227ZM87.6311 146.227H89.46C89.6715 146.228 89.8741 146.312 90.0237 146.462C90.1733 146.612 90.2577 146.814 90.2585 147.026V148.855C90.2582 149.066 90.174 149.269 90.0243 149.419C89.8746 149.569 89.6716 149.653 89.46 149.653H87.6311C87.4197 149.652 87.2172 149.568 87.0677 149.418C86.9181 149.269 86.8338 149.066 86.8329 148.855V147.026C86.8291 146.587 87.1888 146.227 87.6311 146.227ZM93.972 146.227H95.8013C96.0127 146.228 96.2152 146.313 96.3647 146.462C96.5142 146.612 96.5986 146.814 96.5994 147.026V148.855C96.5993 149.066 96.5151 149.269 96.3654 149.419C96.2158 149.569 96.0129 149.653 95.8013 149.653H93.972C93.76 149.653 93.5566 149.569 93.4063 149.419C93.256 149.27 93.171 149.067 93.17 148.855V147.026C93.1723 146.814 93.2577 146.612 93.4077 146.462C93.5577 146.313 93.7604 146.229 93.972 146.227ZM100.314 146.227H102.143C102.355 146.227 102.558 146.311 102.709 146.461C102.859 146.611 102.944 146.814 102.945 147.026V148.855C102.945 148.96 102.924 149.064 102.883 149.161C102.843 149.258 102.784 149.346 102.709 149.42C102.635 149.494 102.546 149.553 102.449 149.593C102.352 149.633 102.248 149.653 102.143 149.653H100.314C100.102 149.652 99.8997 149.568 99.7502 149.418C99.6007 149.269 99.5163 149.066 99.5155 148.855V147.026C99.5163 146.814 99.6007 146.612 99.7502 146.462C99.8997 146.313 100.102 146.228 100.314 146.227ZM81.5185 153.142H83.3473C83.5587 153.143 83.7613 153.227 83.9108 153.377C84.0603 153.526 84.1447 153.729 84.1455 153.94V155.773C84.1448 155.985 84.0604 156.187 83.9109 156.337C83.7614 156.486 83.5588 156.571 83.3473 156.572H81.5185C81.3067 156.571 81.1037 156.487 80.954 156.338C80.8043 156.188 80.7201 155.985 80.7199 155.773V153.944C80.7193 153.839 80.7395 153.735 80.7794 153.637C80.8193 153.54 80.878 153.452 80.9522 153.377C81.0265 153.302 81.1147 153.243 81.2119 153.203C81.3091 153.163 81.4133 153.142 81.5185 153.142ZM87.8594 153.142H89.6882C89.8997 153.143 90.1024 153.227 90.2519 153.377C90.4015 153.526 90.4859 153.729 90.4868 153.94V155.773C90.4858 155.985 90.4014 156.187 90.2519 156.337C90.1023 156.486 89.8997 156.571 89.6882 156.572H87.8594C87.6479 156.571 87.4453 156.486 87.2958 156.337C87.1463 156.187 87.0619 155.985 87.0612 155.773V153.944C87.0605 153.839 87.0807 153.735 87.1206 153.637C87.1604 153.54 87.2191 153.452 87.2933 153.377C87.3675 153.302 87.4557 153.243 87.5529 153.203C87.65 153.163 87.7542 153.142 87.8594 153.142ZM94.201 153.142H96.0299C96.2419 153.142 96.4453 153.226 96.5956 153.376C96.7459 153.525 96.8309 153.728 96.8319 153.94V155.773C96.831 155.985 96.7461 156.188 96.5958 156.338C96.4454 156.488 96.242 156.572 96.0299 156.572H94.201C93.9895 156.571 93.7869 156.486 93.6374 156.337C93.4879 156.187 93.4036 155.985 93.4028 155.773V153.944C93.4028 153.732 93.4868 153.529 93.6364 153.378C93.7859 153.228 93.989 153.143 94.201 153.142ZM87.6311 138.799H89.46C89.6715 138.8 89.8741 138.884 90.0236 139.034C90.1732 139.183 90.2576 139.386 90.2585 139.597V141.426C90.2583 141.638 90.1741 141.841 90.0244 141.991C89.8747 142.14 89.6717 142.224 89.46 142.225H87.6311C87.4197 142.224 87.2172 142.139 87.0677 141.99C86.9181 141.84 86.8338 141.638 86.8329 141.426V139.597C86.8291 139.159 87.1888 138.799 87.6311 138.799ZM93.972 138.799H95.8013C96.0128 138.8 96.2153 138.884 96.3648 139.034C96.5144 139.183 96.5987 139.386 96.5994 139.597V141.426C96.5993 141.638 96.5152 141.841 96.3655 141.991C96.2159 142.14 96.0129 142.224 95.8013 142.225H93.972C93.76 142.225 93.5566 142.141 93.4063 141.991C93.256 141.841 93.171 141.638 93.17 141.426V139.597C93.1723 139.386 93.2576 139.184 93.4077 139.034C93.5577 138.885 93.7604 138.8 93.972 138.799ZM231.269 42.7393H233.097C233.309 42.7394 233.512 42.8235 233.662 42.9731C233.812 43.1228 233.896 43.3258 233.896 43.5375V45.3667C233.896 45.5783 233.811 45.7812 233.662 45.9309C233.512 46.0805 233.309 46.1647 233.097 46.1648H231.269C231.057 46.164 230.855 46.0796 230.705 45.9301C230.556 45.7806 230.471 45.5781 230.47 45.3667V43.5375C230.466 43.099 230.826 42.7393 231.269 42.7393ZM237.609 42.7393H239.438C239.65 42.74 239.852 42.8243 240.002 42.9739C240.152 43.1234 240.236 43.326 240.237 43.5375V45.3667C240.237 45.5784 240.152 45.7813 240.003 45.931C239.853 46.0806 239.65 46.1647 239.438 46.1648H237.609C237.398 46.164 237.196 46.0796 237.046 45.9301C236.896 45.7806 236.812 45.5781 236.811 45.3667V43.5375C236.812 43.326 236.896 43.1235 237.046 42.974C237.196 42.8245 237.398 42.7401 237.609 42.7393ZM243.955 42.7393H245.784C245.995 42.74 246.198 42.8243 246.348 42.9739C246.497 43.1234 246.582 43.326 246.582 43.5375V45.3667C246.582 45.5783 246.498 45.7812 246.348 45.9309C246.198 46.0805 245.996 46.1647 245.784 46.1648H243.955C243.744 46.164 243.541 46.0796 243.392 45.9301C243.242 45.7806 243.158 45.5781 243.157 45.3667V43.5375C243.153 43.099 243.513 42.7393 243.955 42.7393ZM250.296 42.7393H252.125C252.336 42.74 252.539 42.8243 252.688 42.9739C252.838 43.1234 252.922 43.326 252.923 43.5375V45.3667C252.923 45.5784 252.839 45.7813 252.689 45.931C252.539 46.0806 252.336 46.1647 252.125 46.1648H250.296C250.084 46.1648 249.88 46.0809 249.73 45.9313C249.58 45.7817 249.495 45.5787 249.494 45.3667V43.5375C249.496 43.3258 249.582 43.1235 249.732 42.9742C249.882 42.8249 250.084 42.7406 250.296 42.7393ZM256.638 42.7393H258.467C258.679 42.7393 258.882 42.8232 259.033 42.9728C259.183 43.1224 259.268 43.3254 259.269 43.5375V45.3667C259.269 45.4717 259.248 45.5757 259.207 45.6727C259.167 45.7697 259.108 45.8578 259.033 45.9319C258.959 46.006 258.87 46.0648 258.773 46.1047C258.676 46.1447 258.572 46.1651 258.467 46.1648H256.638C256.426 46.164 256.224 46.0796 256.074 45.9301C255.925 45.7806 255.84 45.5781 255.839 45.3667V43.5375C255.84 43.326 255.925 43.1235 256.074 42.974C256.224 42.8245 256.426 42.7401 256.638 42.7393ZM237.842 49.654H239.671C239.883 49.6548 240.085 49.7392 240.235 49.8887C240.384 50.0382 240.469 50.2408 240.469 50.4522V52.2849C240.469 52.4964 240.384 52.699 240.235 52.8486C240.085 52.9982 239.883 53.0826 239.671 53.0835H237.842C237.631 53.0833 237.428 52.9991 237.278 52.8494C237.128 52.6997 237.044 52.4967 237.044 52.2849V50.4561C237.043 50.3509 237.063 50.2466 237.103 50.1492C237.143 50.0519 237.202 49.9634 237.276 49.8888C237.35 49.8143 237.439 49.7551 237.536 49.7148C237.633 49.6745 237.737 49.6539 237.842 49.654ZM244.183 49.654H246.012C246.224 49.6547 246.426 49.7391 246.576 49.8886C246.725 50.0381 246.81 50.2407 246.811 50.4522V52.2849C246.81 52.4964 246.725 52.699 246.576 52.8485C246.426 52.9981 246.224 53.0825 246.012 53.0835H244.183C243.972 53.0826 243.769 52.9982 243.62 52.8486C243.47 52.699 243.386 52.4964 243.385 52.2849V50.4561C243.384 50.3509 243.405 50.2466 243.444 50.1493C243.484 50.0519 243.543 49.9634 243.617 49.8888C243.691 49.8143 243.78 49.7552 243.877 49.7148C243.974 49.6745 244.078 49.6539 244.183 49.654ZM250.525 49.654H252.354C252.566 49.654 252.769 49.738 252.919 49.8876C253.07 50.0371 253.155 50.2401 253.156 50.4522V52.2849C253.155 52.497 253.07 52.7001 252.92 52.8498C252.769 52.9994 252.566 53.0835 252.354 53.0835H250.525C250.313 53.0826 250.111 52.9982 249.961 52.8486C249.812 52.699 249.727 52.4964 249.727 52.2849V50.4561C249.727 50.244 249.811 50.0406 249.96 49.8903C250.11 49.74 250.313 49.655 250.525 49.654ZM243.955 35.3108H245.784C245.995 35.3115 246.198 35.3959 246.348 35.5454C246.497 35.6949 246.582 35.8975 246.582 36.109V37.9382C246.582 38.1498 246.498 38.3528 246.348 38.5024C246.198 38.652 245.996 38.7362 245.784 38.7364H243.955C243.744 38.7355 243.541 38.6512 243.392 38.5017C243.242 38.3521 243.158 38.1496 243.157 37.9382V36.109C243.153 35.6705 243.513 35.3108 243.955 35.3108ZM250.296 35.3108H252.125C252.336 35.3115 252.539 35.3959 252.688 35.5454C252.838 35.6949 252.922 35.8975 252.923 36.109V37.9382C252.923 38.1499 252.839 38.3528 252.689 38.5025C252.539 38.6522 252.336 38.7363 252.125 38.7364H250.296C250.084 38.7364 249.88 38.6524 249.73 38.5028C249.58 38.3532 249.495 38.1502 249.494 37.9382V36.109C249.496 35.8973 249.582 35.6951 249.732 35.5458C249.882 35.3965 250.084 35.3121 250.296 35.3108ZM81.0577 44.4858H82.8869C83.0986 44.486 83.3015 44.5701 83.4511 44.7198C83.6008 44.8694 83.6849 45.0723 83.6851 45.284V47.1132C83.6849 47.3248 83.6008 47.5277 83.4511 47.6774C83.3015 47.827 83.0986 47.9112 82.8869 47.9114H81.0577C80.8463 47.9105 80.6437 47.8262 80.4942 47.6767C80.3447 47.5272 80.2604 47.3246 80.2595 47.1132V45.284C80.2556 44.8455 80.6157 44.4858 81.0577 44.4858ZM87.399 44.4858H89.2278C89.4393 44.4866 89.6418 44.571 89.7913 44.7205C89.9408 44.87 90.0252 45.0725 90.026 45.284V47.1132C90.0258 47.3248 89.9417 47.5277 89.792 47.6774C89.6424 47.827 89.4395 47.9112 89.2278 47.9114H87.399C87.1875 47.9106 86.9849 47.8263 86.8353 47.6768C86.6857 47.5273 86.6013 47.3247 86.6005 47.1132V45.284C86.6013 45.0725 86.6857 44.8699 86.8353 44.7204C86.9849 44.5709 87.1875 44.4865 87.399 44.4858ZM93.7441 44.4858H95.5734C95.7848 44.4866 95.9873 44.571 96.1368 44.7205C96.2863 44.87 96.3707 45.0725 96.3715 45.284V47.1132C96.3713 47.3248 96.2872 47.5277 96.1375 47.6774C95.9879 47.827 95.785 47.9112 95.5734 47.9114H93.7441C93.5327 47.9105 93.3302 47.8262 93.1807 47.6767C93.0312 47.5272 92.9468 47.3246 92.946 47.1132V45.284C92.9421 44.8455 93.3021 44.4858 93.7441 44.4858ZM100.085 44.4858H101.914C102.126 44.4866 102.328 44.571 102.478 44.7205C102.627 44.87 102.712 45.0725 102.712 45.284V47.1132C102.712 47.3248 102.628 47.5277 102.478 47.6774C102.329 47.827 102.126 47.9112 101.914 47.9114H100.085C99.8734 47.9114 99.67 47.8274 99.5196 47.6778C99.3693 47.5282 99.2844 47.3252 99.2834 47.1132V45.284C99.2857 45.0723 99.371 44.8701 99.5211 44.7208C99.6711 44.5715 99.8738 44.4871 100.085 44.4858ZM106.427 44.4858H108.256C108.468 44.4858 108.671 44.5698 108.822 44.7193C108.972 44.8689 109.057 45.0719 109.058 45.284V47.1132C109.058 47.2183 109.037 47.3223 108.996 47.4193C108.956 47.5163 108.897 47.6044 108.822 47.6785C108.748 47.7527 108.66 47.8114 108.562 47.8513C108.465 47.8913 108.361 47.9117 108.256 47.9114H106.427C106.216 47.9106 106.013 47.8263 105.863 47.6768C105.714 47.5273 105.629 47.3247 105.629 47.1132V45.284C105.629 45.0725 105.714 44.8699 105.863 44.7204C106.013 44.5709 106.216 44.4865 106.427 44.4858ZM87.6315 51.4005H89.4607C89.6722 51.4014 89.8748 51.4858 90.0243 51.6354C90.1738 51.7849 90.2581 51.9876 90.2589 52.1991V54.0318C90.258 54.2432 90.1737 54.4458 90.0242 54.5953C89.8747 54.7448 89.6721 54.8291 89.4607 54.83H87.6315C87.4198 54.8298 87.2169 54.7456 87.0673 54.596C86.9176 54.4464 86.8335 54.2434 86.8333 54.0318V52.2026C86.8327 52.0974 86.8529 51.9932 86.8927 51.8958C86.9326 51.7985 86.9913 51.71 87.0655 51.6355C87.1397 51.5609 87.2279 51.5018 87.325 51.4615C87.4222 51.4211 87.5263 51.4004 87.6315 51.4005ZM93.9728 51.4005H95.8016C96.0131 51.4014 96.2157 51.4858 96.3652 51.6354C96.5147 51.7849 96.599 51.9876 96.5998 52.1991V54.0318C96.5989 54.2432 96.5146 54.4458 96.3651 54.5953C96.2156 54.7448 96.013 54.8291 95.8016 54.83H93.9728C93.7613 54.8292 93.5586 54.7449 93.4091 54.5954C93.2595 54.4459 93.1751 54.2433 93.1742 54.0318V52.2026C93.1737 52.0974 93.1939 51.9932 93.2338 51.8958C93.2737 51.7985 93.3324 51.71 93.4066 51.6355C93.4809 51.5609 93.5691 51.5018 93.6662 51.4615C93.7634 51.4211 93.8676 51.4004 93.9728 51.4005ZM100.314 51.4005H102.143C102.355 51.4006 102.559 51.4847 102.709 51.6343C102.859 51.7839 102.944 51.987 102.945 52.1991V54.0318C102.944 54.2439 102.859 54.4469 102.709 54.5964C102.559 54.746 102.355 54.83 102.143 54.83H100.314C100.103 54.8292 99.9003 54.7449 99.7507 54.5954C99.6011 54.4459 99.5167 54.2433 99.5159 54.0318V52.2026C99.5159 51.9905 99.5999 51.787 99.7495 51.6367C99.8992 51.4864 100.102 51.4015 100.314 51.4005ZM93.7441 37.0573H95.5734C95.7848 37.0582 95.9874 37.1426 96.1369 37.2922C96.2865 37.4417 96.3708 37.6444 96.3715 37.8559V39.6847C96.3714 39.8964 96.2873 40.0993 96.1377 40.249C95.988 40.3987 95.785 40.4828 95.5734 40.4829H93.7441C93.5327 40.482 93.3302 40.3977 93.1807 40.2482C93.0312 40.0987 92.9468 39.8961 92.946 39.6847V37.8559C92.9421 37.4174 93.3021 37.0573 93.7441 37.0573ZM100.085 37.0573H101.914C102.126 37.0582 102.328 37.1426 102.478 37.2922C102.627 37.4417 102.712 37.6444 102.712 37.8559V39.6847C102.712 39.8964 102.628 40.0993 102.479 40.249C102.329 40.3987 102.126 40.4828 101.914 40.4829H100.085C99.8734 40.4829 99.67 40.3989 99.5196 40.2493C99.3693 40.0998 99.2844 39.8968 99.2834 39.6847V37.8559C99.2856 37.6441 99.3709 37.4418 99.5209 37.2924C99.671 37.143 99.8737 37.0586 100.085 37.0573ZM233.292 146.642H235.121C235.333 146.642 235.535 146.726 235.685 146.876C235.835 147.026 235.919 147.228 235.919 147.44V149.269C235.919 149.481 235.835 149.684 235.685 149.833C235.536 149.983 235.333 150.067 235.121 150.067H233.292C233.08 150.067 232.878 149.982 232.728 149.833C232.579 149.683 232.494 149.48 232.494 149.269V147.44C232.49 147.002 232.85 146.642 233.292 146.642ZM239.633 146.642H241.462C241.673 146.643 241.876 146.727 242.025 146.877C242.175 147.026 242.259 147.229 242.26 147.44V149.269C242.26 149.481 242.176 149.684 242.026 149.833C241.877 149.983 241.674 150.067 241.462 150.067H239.633C239.422 150.067 239.219 149.982 239.069 149.833C238.92 149.683 238.835 149.48 238.834 149.269V147.44C238.835 147.229 238.92 147.026 239.069 146.876C239.219 146.727 239.422 146.643 239.633 146.642ZM245.979 146.642H247.807C248.019 146.643 248.221 146.727 248.371 146.877C248.52 147.026 248.605 147.229 248.606 147.44V149.269C248.605 149.481 248.521 149.684 248.372 149.833C248.222 149.983 248.019 150.067 247.807 150.067H245.979C245.767 150.067 245.564 149.982 245.415 149.833C245.265 149.683 245.181 149.48 245.18 149.269V147.44C245.176 147.002 245.536 146.642 245.979 146.642ZM252.319 146.642H254.148C254.36 146.643 254.562 146.727 254.712 146.876C254.862 147.026 254.946 147.229 254.947 147.44V149.269C254.947 149.481 254.862 149.684 254.713 149.833C254.563 149.983 254.36 150.067 254.148 150.067H252.319C252.107 150.067 251.904 149.983 251.754 149.834C251.603 149.684 251.518 149.481 251.517 149.269V147.44C251.52 147.228 251.605 147.026 251.755 146.877C251.905 146.728 252.108 146.643 252.319 146.642ZM258.661 146.642H260.49C260.702 146.642 260.905 146.726 261.056 146.875C261.206 147.025 261.291 147.228 261.292 147.44V149.269C261.292 149.374 261.271 149.478 261.23 149.575C261.19 149.672 261.131 149.76 261.056 149.834C260.982 149.909 260.894 149.967 260.796 150.007C260.699 150.047 260.595 150.068 260.49 150.067H258.661C258.45 150.067 258.247 149.982 258.097 149.833C257.948 149.683 257.864 149.48 257.863 149.269V147.44C257.864 147.229 257.948 147.026 258.098 146.877C258.247 146.727 258.45 146.643 258.661 146.642ZM239.866 153.557H241.695C241.906 153.557 242.109 153.642 242.258 153.791C242.408 153.941 242.492 154.143 242.493 154.355V156.188C242.492 156.399 242.408 156.602 242.258 156.751C242.109 156.901 241.906 156.985 241.695 156.986H239.866C239.654 156.986 239.451 156.901 239.301 156.752C239.152 156.602 239.068 156.399 239.067 156.188V154.359C239.067 154.254 239.087 154.149 239.127 154.052C239.167 153.955 239.225 153.866 239.299 153.791C239.374 153.717 239.462 153.658 239.559 153.617C239.656 153.577 239.76 153.556 239.866 153.557ZM246.207 153.557H248.036C248.247 153.557 248.45 153.642 248.599 153.791C248.749 153.941 248.833 154.143 248.834 154.355V156.188C248.833 156.399 248.749 156.602 248.599 156.751C248.45 156.901 248.247 156.985 248.036 156.986H246.207C245.995 156.985 245.793 156.901 245.643 156.751C245.493 156.602 245.409 156.399 245.408 156.188V154.359C245.408 154.253 245.428 154.149 245.468 154.052C245.508 153.955 245.566 153.866 245.641 153.791C245.715 153.717 245.803 153.658 245.9 153.617C245.997 153.577 246.102 153.556 246.207 153.557ZM252.548 153.557H254.377C254.589 153.557 254.793 153.641 254.943 153.79C255.093 153.94 255.178 154.143 255.179 154.355V156.188C255.178 156.4 255.093 156.603 254.943 156.752C254.793 156.902 254.589 156.986 254.377 156.986H252.548C252.337 156.985 252.134 156.901 251.985 156.751C251.835 156.602 251.751 156.399 251.75 156.188V154.359C251.75 154.147 251.834 153.943 251.983 153.793C252.133 153.643 252.336 153.558 252.548 153.557ZM245.979 139.213H247.807C248.019 139.214 248.221 139.299 248.371 139.448C248.52 139.598 248.605 139.8 248.606 140.012V141.841C248.605 142.052 248.521 142.255 248.372 142.405C248.222 142.555 248.019 142.639 247.807 142.639H245.979C245.767 142.638 245.564 142.554 245.415 142.404C245.265 142.255 245.181 142.052 245.18 141.841V140.012C245.176 139.573 245.536 139.213 245.979 139.213ZM252.319 139.213H254.148C254.36 139.214 254.562 139.298 254.712 139.448C254.862 139.598 254.946 139.8 254.947 140.012V141.841C254.947 142.052 254.862 142.255 254.713 142.405C254.563 142.555 254.36 142.639 254.148 142.639H252.319C252.107 142.639 251.904 142.555 251.754 142.405C251.603 142.256 251.518 142.053 251.517 141.841V140.012C251.52 139.8 251.605 139.598 251.755 139.448C251.905 139.299 252.108 139.215 252.319 139.213Z" fill="#438246"/>
<path d="M260.027 108.815C253.038 110.47 245.647 104.543 245.647 104.543C245.647 104.543 249.592 95.9359 256.582 94.2858C263.57 92.6301 270.959 98.5516 270.959 98.5516C270.959 98.5516 267.015 107.159 260.027 108.815Z" fill="#438146"/>
<path d="M47.6376 111.93C40.6493 113.585 33.2583 107.659 33.2583 107.659C33.2583 107.659 37.2026 99.0514 44.1929 97.401C51.1811 95.7456 58.5697 101.667 58.5697 101.667C58.5697 101.667 54.6254 110.274 47.6376 111.93Z" fill="#438146"/>
<path d="M136.192 34.8835C144.948 33.1133 150.21 22.5688 150.21 22.5688C150.21 22.5688 141.271 14.9004 132.515 16.6777C123.758 18.4479 118.497 28.9853 118.497 28.9853C118.497 28.9853 127.436 36.6537 136.192 34.8835Z" fill="#C4F0C4"/>
<path d="M208.108 181.427C219.199 178.879 225.545 165.274 225.545 165.274C225.545 165.274 213.904 155.809 202.813 158.366C191.722 160.915 185.375 174.511 185.375 174.511C185.375 174.511 197.017 183.976 208.108 181.427Z" fill="#C4F0C4"/>
<path d="M276.57 123.953C273.296 123.953 270.643 126.491 270.643 129.622C270.643 132.753 273.296 135.292 276.57 135.292C279.843 135.292 282.497 132.753 282.497 129.622C282.497 126.491 279.843 123.953 276.57 123.953Z" fill="#005B05"/>
<path d="M103.918 169.985C101.068 169.985 98.758 172.295 98.758 175.145C98.758 177.995 101.068 180.305 103.918 180.305C106.768 180.305 109.078 177.995 109.078 175.145C109.078 172.295 106.768 169.985 103.918 169.985Z" fill="#005B05"/>
<path d="M82.6574 77.6598C81.0918 77.6598 79.8226 76.3906 79.8226 74.825C79.8226 73.2594 81.0918 71.9902 82.6574 71.9902C84.223 71.9902 85.4922 73.2594 85.4922 74.825C85.4922 76.3906 84.223 77.6598 82.6574 77.6598Z" fill="#005B05"/>
<path d="M270.632 59.6359C268.002 59.6359 265.869 57.4144 265.869 54.674C265.869 51.9337 268.002 49.7122 270.632 49.7122C273.263 49.7122 275.396 51.9337 275.396 54.674C275.396 57.4144 273.263 59.6359 270.632 59.6359Z" fill="#005B05"/>
<path d="M49.7361 142.199C47.6535 142.199 45.9653 140.511 45.9653 138.428C45.9653 136.346 47.6535 134.657 49.7361 134.657C51.8186 134.657 53.5068 136.346 53.5068 138.428C53.5068 140.511 51.8186 142.199 49.7361 142.199Z" fill="#005B05"/>
<path d="M138.86 174.193C136.323 174.193 134.266 172.216 134.266 169.777C134.266 167.337 136.323 165.36 138.86 165.36C141.397 165.36 143.453 167.337 143.453 169.777C143.453 172.216 141.397 174.193 138.86 174.193Z" fill="#438246"/>
<path d="M79.7863 111.217C78.1183 111.217 76.7661 109.865 76.7661 108.197C76.7661 106.529 78.1183 105.176 79.7863 105.176C81.4544 105.176 82.8066 106.529 82.8066 108.197C82.8066 109.865 81.4544 111.217 79.7863 111.217Z" fill="#438246"/>
<path d="M166.244 185.5C164.78 185.5 163.594 184.234 163.594 182.673C163.594 181.112 164.78 179.847 166.244 179.847C167.707 179.847 168.894 181.112 168.894 182.673C168.894 184.234 167.707 185.5 166.244 185.5Z" fill="#438246"/>
<path d="M185.486 27.0809C184.062 27.0809 182.909 25.9271 182.909 24.5037C182.909 23.0804 184.062 21.9265 185.486 21.9265C186.909 21.9265 188.063 23.0804 188.063 24.5037C188.063 25.9271 186.909 27.0809 185.486 27.0809Z" fill="#438246"/>
<path d="M69.7407 126.373C70.1006 127.716 69.3034 129.097 67.96 129.457C66.6167 129.817 65.2358 129.02 64.8759 127.676C64.5159 126.333 65.3131 124.952 66.6565 124.592C67.9999 124.232 69.3807 125.029 69.7407 126.373Z" fill="#438246"/>
<path d="M88.0472 22.0688C86.1968 22.0688 84.6968 20.5688 84.6968 18.7185C84.6968 16.8681 86.1968 15.3682 88.0472 15.3682C89.8975 15.3682 91.3975 16.8681 91.3975 18.7185C91.3975 20.5688 89.8975 22.0688 88.0472 22.0688Z" fill="#438246"/>
<path d="M254.88 77.8602C253.457 77.8602 252.303 76.9372 252.303 75.7985C252.303 74.6599 253.457 73.7368 254.88 73.7368C256.304 73.7368 257.458 74.6599 257.458 75.7985C257.458 76.9372 256.304 77.8602 254.88 77.8602Z" fill="#438246"/>
<path d="M215.484 37.5467C216.233 40.3426 214.574 43.2165 211.778 43.9656C208.982 44.7148 206.109 43.0556 205.359 40.2597C204.61 37.4638 206.269 34.59 209.065 33.8408C211.861 33.0916 214.735 34.7508 215.484 37.5467Z" fill="#438246"/>
<path d="M282.233 71.5535H282.301C282.7 77.21 286.907 77.297 286.907 77.297C286.907 77.297 282.268 77.3874 282.268 83.9234C282.268 77.3874 277.629 77.297 277.629 77.297C277.629 77.297 281.834 77.21 282.233 71.5535ZM59.3691 47.5371H59.4853C60.1729 57.4361 67.4177 57.5884 67.4177 57.5884C67.4177 57.5884 59.4288 57.7467 59.4288 69.1848C59.4288 57.7467 51.4399 57.5884 51.4399 57.5884C51.4399 57.5884 58.6815 57.4361 59.3691 47.5371Z" fill="#438246"/>
</g>
<defs>
<clipPath id="clip0_109_121">
<rect width="318" height="212" fill="white"/>
</clipPath>
</defs>
</svg>
